<svg xmlns="http://www.w3.org/2000/svg" viewBox="0 0 512 512">
  <path d="M388.78,289.44h-201.41l84.57,84.57c9.77,9.77,9.77,25.62,0,35.39-4.88,4.88-11.29,7.33-17.69,7.33s-12.81-2.44-17.7-7.33l-127.27-127.28c-.97-.97-1.82-2.03-2.54-3.2-.86-1.36-1.56-2.8-2.1-4.33-.61-1.53-.98-3.16-1.17-4.8-.28-1.49-.44-3.02-.44-4.59s.16-3.1.44-4.58c.18-1.64.55-3.27 1.17-4.8.54-1.52 1.24-2.96 2.1-4.33.72-1.17 1.57-2.23 2.54-3.2L238.84,117.14c9.77-9.77,25.62-9.78,35.39,0,9.78,9.77,9.78,25.62,0,35.39l-86.86,86.86h201.41c13.82,0,25.03,11.21,25.03,25.03s-11.21,25.03-25.03,25.03Z"/>
</svg>

