<?xml version="1.0" encoding="UTF-8"?>
<svg id="Ebene_1" data-name="Ebene 1" xmlns="http://www.w3.org/2000/svg" viewBox="0 0 512 512">
  <path d="M255.99,0C114.61,0,0,114.61,0,256s114.61,256,255.99,256,256.01-114.62,256.01-256S397.39,0,255.99,0ZM388.78,289.44h-201.41l84.57,84.57c9.77,9.77,9.77,25.62,0,35.39-4.88,4.88-11.29,7.33-17.69,7.33s-12.81-2.44-17.7-7.33l-127.27-127.28c-1.18-1.18-2.23-2.47-3.16-3.86-.06-.09-.11-.18-.17-.27-.83-1.28-1.55-2.63-2.13-4.06-.04-.11-.08-.22-.12-.33-.55-1.39-.99-2.84-1.29-4.34-.02-.08-.02-.17-.04-.25-.28-1.49-.44-3.02-.44-4.59v-.02c0-1.57.16-3.1.44-4.58.02-.09.02-.17.04-.26.29-1.5.73-2.94,1.28-4.33.04-.11.08-.22.12-.33.59-1.42,1.3-2.77,2.13-4.05.06-.09.11-.19.17-.29.92-1.38,1.97-2.67,3.13-3.84,0,0,0,0,0-.01L238.84,117.14c9.77-9.77,25.62-9.78,35.39,0,9.78,9.77,9.78,25.62,0,35.39l-86.86,86.86h201.41c13.82,0,25.03,11.21,25.03,25.03s-11.21,25.03-25.03,25.03Z"/>
</svg>