<?xml version="1.0" encoding="UTF-8"?>
<svg id="Ebene_1" data-name="Ebene 1" xmlns="http://www.w3.org/2000/svg" viewBox="0 0 512 525">
  <defs>
    <style>
      .cls-1 {
        fill: #9b9e16;
      }

      .cls-2 {
        fill: #baba08;
      }

      .cls-3 {
        fill: #c6c685;
      }

      .cls-4 {
        fill: #d0db40;
      }

      .cls-5 {
        fill: #f1f47f;
      }
    </style>
  </defs>
  <path class="cls-2" d="M256,484.05c-111.3,0-201.85-90.55-201.85-201.85S144.7,80.34,256,80.34s201.85,90.55,201.85,201.85-90.55,201.85-201.85,201.85ZM256,113.89c-92.8,0-168.3,75.5-168.3,168.3s75.5,168.3,168.3,168.3,168.3-75.5,168.3-168.3-75.5-168.3-168.3-168.3Z"/>
  <path class="cls-4" d="M256,182.5v224.99c-1.93,0-3.83.31-5.68.93L23.59,484.63c-15.6,5.24-29.37-11.62-21.12-25.84L167.03,175.07l50.85-23.18,38.11,30.61Z"/>
  <path class="cls-1" d="M488.41,484.63l-226.72-76.22c-1.85-.62-3.78-.93-5.69-.93v-224.99l38.82-30.61,48.58,20.46,166.13,286.43c8.25,14.23-5.52,31.1-21.12,25.85Z"/>
  <path class="cls-5" d="M256,39.39v143.11l-38.11-30.61-50.85,23.18,73.54-126.8c3.43-5.93,9.43-8.89,15.42-8.89Z"/>
  <path class="cls-3" d="M343.4,172.35l-48.58-20.46-38.82,30.61V39.39c5.99,0,11.99,2.95,15.43,8.89l71.97,124.08Z"/>
</svg>